<svg fill="#FFBC00" width="24" height="24" viewBox="0 0 24 24" 
xmlns="http://www.w3.org/2000/svg" xmlns:xlink="http://www.w3.org/1999/xlink">
    <g>
        <path
            d="M8.581 21.0009C8.66462 21.0007 8.74824 21.0005 8.83187 21.0003C9.05719 20.9998 9.28251 21 9.50784 21.0003C9.74465 21.0006 9.98145 21.0004 10.2183 21.0002C10.6157 21 11.0132 21.0003 11.4106 21.0008C11.869 21.0013 12.3273 21.0011 12.7857 21.0006C13.1806 21.0001 13.5754 21 13.9703 21.0003C14.2056 21.0005 14.4408 21.0005 14.6761 21.0001C14.8973 20.9998 15.1185 21 15.3397 21.0006C15.4205 21.0008 15.5013 21.0007 15.582 21.0005C16.3893 20.9984 17.05 21.0891 17.7139 21.5349C17.7593 21.5628 17.8046 21.5907 17.8514 21.6195C18.2857 21.9911 18.5842 22.503 18.6726 23.0446C18.6735 23.166 18.6735 23.2875 18.6726 23.409C18.722 23.4081 18.7715 23.4073 18.8225 23.4065C19.0073 23.4038 19.192 23.4019 19.3768 23.4004C19.4565 23.3996 19.5363 23.3985 19.616 23.3972C19.7311 23.3953 19.8461 23.3944 19.9612 23.3937C20.0303 23.3929 20.0994 23.3921 20.1706 23.3912C20.4582 23.4176 20.64 23.5011 20.833 23.6985C21.0275 23.9578 21.0103 24.1933 20.9846 24.5022C20.8997 24.7188 20.7637 24.8157 20.5466 24.9263C20.2871 25.0178 20.0121 24.9991 19.7379 24.9971C19.6349 24.9976 19.6349 24.9976 19.5298 24.9981C19.3398 24.9988 19.1499 24.9985 18.96 24.9979C18.7548 24.9974 18.5497 24.9982 18.3446 24.9987C17.943 24.9997 17.5415 24.9995 17.1399 24.9989C16.8136 24.9984 16.4872 24.9983 16.1608 24.9985C16.1143 24.9986 16.0679 24.9986 16.02 24.9986C15.9256 24.9987 15.8312 24.9988 15.7368 24.9988C14.8517 24.9994 13.9667 24.9988 13.0816 24.9976C12.3224 24.9967 11.5632 24.9969 10.8039 24.9978C9.92201 24.9989 9.04011 24.9994 8.15821 24.9987C8.06415 24.9987 7.97009 24.9986 7.87603 24.9985C7.82975 24.9985 7.78347 24.9985 7.73579 24.9984C7.40984 24.9983 7.0839 24.9986 6.75795 24.9991C6.36066 24.9996 5.96339 24.9995 5.56611 24.9984C5.36345 24.9978 5.1608 24.9976 4.95814 24.9983C4.73839 24.999 4.51867 24.9982 4.29892 24.9971C4.20297 24.9978 4.20297 24.9978 4.10508 24.9985C3.74183 24.9952 3.51615 24.9638 3.22141 24.7625C3.04445 24.5555 2.98283 24.3518 3.00399 24.0884C3.05463 23.8187 3.17493 23.6877 3.40446 23.5198C3.61844 23.3926 3.81168 23.4029 4.05912 23.4039C4.11509 23.404 4.11509 23.404 4.17218 23.4041C4.29112 23.4044 4.41004 23.405 4.52897 23.4057C4.60971 23.406 4.69044 23.4062 4.77117 23.4064C4.96887 23.407 5.16657 23.4079 5.36427 23.409C5.36354 23.3522 5.3628 23.2955 5.36205 23.237C5.36873 22.6575 5.67162 22.0792 6.11563 21.6762C6.8751 21.0874 7.61467 20.9981 8.581 21.0009Z"></path>
        <path
            d="M24 6.26331C24 5.15874 23.1046 4.26331 22 4.26331H19.1344L19.1479 1.16667C19.1479 0.520139 18.6647 0 18.0641 0H5.7805C5.17987 0 4.69666 0.520139 4.69666 1.16667V4.26331H2.00014C0.895719 4.26331 0.000350971 5.15851 0.000140479 6.26293L0 7C0 8.10619 0.692016 9.22424 1.19383 9.88957C1.51296 10.3127 1.91354 10.6621 2.35735 10.9517C3.18811 11.4939 4.66065 12.3494 5.88372 12.5C7.30175 15.0326 10 17.5 10 17.5L8.82558 20H15.3286L14 17.5C14 17.5 17.0079 15.0326 18.4259 12.5C20.1251 12.2912 21.8907 10.7289 22.1175 10.5225C22.1343 10.5072 22.1496 10.4928 22.1658 10.4769C22.3821 10.2642 24 8.61942 24 7V6.26331ZM3.40056 9.37222C2.29865 8.51667 1.80641 7.56389 1.80641 7C1.80641 6.57045 2.15463 6.22222 2.58418 6.22222H4.70569C4.75085 7.80694 4.96762 9.19722 5.28374 10.4125C4.60182 10.1597 3.96506 9.80972 3.40056 9.37222ZM22.0382 7C22.0382 7.78264 21.2388 8.75486 20.444 9.37222C19.8795 9.80972 19.2382 10.1597 18.5563 10.4125C18.8724 9.19722 19.0892 7.80694 19.1344 6.22222H21.2604C21.6899 6.22222 22.0382 6.57045 22.0382 7ZM9.40356 9.6722L8.38801 6.90385C8.23871 6.49687 8.64269 6.1057 9.04465 6.26803L9.89509 6.61148C10.1208 6.70263 10.3793 6.618 10.5075 6.41104L11.5749 4.68675C11.7703 4.37099 12.2297 4.37099 12.4251 4.68675L13.4925 6.41104C13.6207 6.618 13.8792 6.70263 14.1049 6.61148L14.9553 6.26803C15.3573 6.1057 15.7613 6.49687 15.612 6.90385L14.5964 9.6722C14.5242 9.8691 14.3368 10 14.127 10H9.87297C9.66323 10 9.47579 9.8691 9.40356 9.6722Z"></path>
    </g>
</svg>